:SAMPLES-PER-SECOND 30
:FULLY-SPECIFIED
:DEGREES
196
root  16.79595587 39.43733456 -9.971133555 -17.65180016 -70.64559937 18.18549919
lfemur  -22.96750259 5.678649902 -2.13295126
ltibia  -1.491570742e-006 -8.364404493e-007 58.58530045
lfoot  5.521815751e-007 -7.933506966 3.939729452
ltoes  -4.250644065 -19.5611806 -102.515957
rfemur  -20.47339821 16.21069908 -1.944793105
rtibia  -8.727266732e-007 2.533748784e-007 55.65139389
rfoot  -2.316020982e-006 -16.43059349 -10.54940033
rtoes  5.373923086 19.29304026 -105.8922705
lowerback  13.29990005 2.614759922 -4.113609791
upperback  4.71009016 2.638590097 -2.713570118
thorax  -2.550189972 1.222919941 -0.9165909886
rclavicle  0 -9.442270133e-015 7.951389973e-016
rhumerus  6.105930805 24.34300041 -75.11820221
rradius  -7.782816926e-012 0.001642658608 136.9429932
rwrist  0.002739921212 0.003270594636 -11.15100002
rthumb  -92.93752616 -24.25625642 -97.11982154
rhand  -7.920061211e-032 -33.2840004 9.303460121
rfingers  -90 -7.125020027 -90
lclavicle  0 -9.442270133e-015 7.951389973e-016
lhumerus  13.38300037 11.02789974 60.07519913
lradius  1.032090212e-011 0.005718162749 138.3119965
lwrist  1.816137865e-011 1.409039812e-011 18.50799942
lthumb  89.89689403 5.08795885 91.16245106
lhand  -1.496451383e-031 -27.76390076 20.11240005
lfingers  90 7.125020027 -90
lowerneck  -4.448840141 10.55990028 -5.055429935
upperneck  10.05220032 14.76470089 -2.685409784
head  3.905560017 6.932859898 0.6326599717
197
root  16.68591086 39.2666674 -9.909955723 -15.60319996 -70.49250031 15.81939983
lfemur  -22.84300041 5.474980354 -0.7779345512
ltibia  -1.491570742e-006 -8.364404493e-007 57.73300171
lfoot  5.521815751e-007 -7.749838829 4.477660179
ltoes  -4.250644065 -19.5611806 -102.515957
rfemur  -19.29839706 17.65430069 -1.122002006
rtibia  -8.727266732e-007 2.533748784e-007 54.70649338
rfoot  -2.316020982e-006 -17.4475975 -11.91399956
rtoes  5.373923086 19.29304026 -105.8922705
lowerback  12.9350996 2.465029955 -3.534849882
upperback  4.644649982 2.544830084 -2.689559937
thorax  -2.39786005 1.183130026 -1.186560035
rclavicle  0 -9.442270133e-015 7.951389973e-016
rhumerus  5.337089539 25.08060074 -75.21389771
rradius  -7.782816926e-012 0.001642658608 136.720993
rwrist  0.002739921212 0.003270594636 -10.25730038
rthumb  -92.93752616 -24.25625642 -97.11982154
rhand  -7.920061211e-032 -33.2840004 9.303460121
rfingers  -90 -7.125020027 -90
lclavicle  0 -9.442270133e-015 7.951389973e-016
lhumerus  12.80399895 11.3987999 60.04700089
lradius  1.032090125e-011 0.005718162749 137.8939972
lwrist  1.816137865e-011 1.409039812e-011 17.6814003
lthumb  89.89689403 5.08795885 91.16245106
lhand  -1.496451383e-031 -27.76390076 20.11240005
lfingers  90 7.125020027 -90
lowerneck  -4.5145998 10.71700001 -5.063739777
upperneck  10.50510025 14.99209976 -2.602469921
head  4.070660114 7.025119781 0.6915829778
198
root  16.57102239 39.08111092 -9.841377529 -14.10029984 -70.36589813 13.99339962
lfemur  -22.60339928 5.243899822 0.4228156209
ltibia  -1.491570742e-006 -8.364404493e-007 56.82679749
lfoot  5.521815751e-007 -7.217745781 4.449649334
ltoes  -4.250644065 -19.5611806 -102.515957
rfemur  -18.11509514 18.95059967 -0.4342732728
rtibia  -8.727266732e-007 2.533748784e-007 54.20988846
rfoot  -2.316020982e-006 -17.66229439 -12.05519867
rtoes  5.373923086 19.29304026 -105.8922705
lowerback  12.55529976 2.318919897 -3.215579987
upperback  4.585120201 2.419049978 -2.669430017
thorax  -2.242330074 1.125339985 -1.311349988
rclavicle  0 -9.442270133e-015 7.951389973e-016
rhumerus  4.558580399 25.92420006 -75.43440247
rradius  -7.782816926e-012 0.001642658608 136.5879974
rwrist  0.002739921212 0.003270594636 -9.684599876
rthumb  -92.93752616 -24.25625642 -97.11982154
rhand  -7.920061211e-032 -33.2840004 9.303460121
rfingers  -90 -7.125020027 -90
lclavicle  0 -9.442270133e-015 7.951389973e-016
lhumerus  11.90140057 11.83530045 59.89440155
lradius  1.032090038e-011 0.005718162749 137.779007
lwrist  1.816137865e-011 1.409039812e-011 16.50489998
lthumb  89.89689403 5.08795885 91.16245106
lhand  -1.496451383e-031 -27.76390076 20.11240005
lfingers  90 7.125020027 -90
lowerneck  -4.67512989 10.99600029 -5.002679825
upperneck  10.90680027 15.38980103 -2.578249693
head  4.246059895 7.202040195 0.7344509959
199
root  16.44926597 38.90133355 -9.764087857 -12.87520027 -70.2052002 12.44390011
lfemur  -22.29969788 4.829510212 1.496919274
ltibia  -1.491570742e-006 -8.364404493e-007 55.86699677
lfoot  5.521815751e-007 -6.330189705 4.007091045
ltoes  -4.250644065 -19.5611806 -102.515957
rfemur  -16.91109848 20.07349968 0.1899898052
rtibia  -8.727266732e-007 2.533748784e-007 53.9489975
rfoot  -2.316020982e-006 -18.24639893 -11.95479965
rtoes  5.373923086 19.29304026 -105.8922705
lowerback  12.14640045 2.16979003 -2.940890074
upperback  4.527200222 2.278340101 -2.739710093
thorax  -2.067830086 1.059810042 -1.503589988
rclavicle  0 -9.442270133e-015 7.951389973e-016
rhumerus  3.907860994 26.47540092 -75.50879669
rradius  -7.782816926e-012 0.001642658608 136.4880066
rwrist  0.002739921212 0.003270594636 -9.606109619
rthumb  -92.93752616 -24.25625642 -97.11982154
rhand  -7.920061211e-032 -33.2840004 9.303460121
rfingers  -90 -7.125020027 -90
lclavicle  0 -9.442270133e-015 7.951389973e-016
lhumerus  10.87969875 12.19950008 59.55619812
lradius  1.032089778e-011 0.005718162749 137.9299927
lwrist  1.816137865e-011 1.409039812e-011 15.12069988
lthumb  89.89689403 5.08795885 91.16245106
lhand  -1.496451383e-031 -27.76390076 20.11240005
lfingers  90 7.125020027 -90
lowerneck  -4.884530067 11.30389977 -4.692810059
upperneck  11.25199986 15.81860065 -2.639980078
head  4.441689968 7.401569843 0.7186239958
200
root  16.32715511 38.70066545 -9.680155506 -11.65200043 -69.95349884 10.9289999
lfemur  -22.05690193 4.259459972 2.51640296
ltibia  -1.491570742e-006 -8.364404493e-007 54.88360214
lfoot  5.521815751e-007 -5.491392612 3.28186059
ltoes  -4.250644065 -19.5611806 -102.515957
rfemur  -15.71120071 21.20240021 0.7864665985
rtibia  -8.727266732e-007 2.533748784e-007 53.70640564
rfoot  -2.316020982e-006 -19.55890274 -11.76420116
rtoes  5.373923086 19.29304026 -105.8922705
lowerback  11.82559967 2.147089958 -2.616830111
upperback  4.391469955 2.305030107 -2.765840054
thorax  -2.021719933 1.079879999 -1.706670046
rclavicle  0 -9.442270133e-015 7.951389973e-016
rhumerus  2.878710032 26.80669975 -75.2736969
rradius  -7.782816926e-012 0.001642658608 136.4620056
rwrist  0.002739921212 0.003270594636 -9.578269958
rthumb  -92.93752616 -24.25625642 -97.11982154
rhand  -7.920061211e-032 -33.2840004 9.303460121
rfingers  -90 -7.125020027 -90
lclavicle  0 -9.442270133e-015 7.951389973e-016
lhumerus  9.859258652 12.11909962 59.51599884
lradius  1.032090125e-011 0.005718162749 138.3040009
lwrist  1.816137865e-011 1.409039812e-011 13.63539982
lthumb  89.89689403 5.08795885 91.16245106
lhand  -1.496451383e-031 -27.76390076 20.11240005
lfingers  90 7.125020027 -90
lowerneck  -5.015339851 11.4385004 -4.735599995
upperneck  11.51280022 16.01230049 -2.516269922
head  4.545599937 7.486619949 0.7934250236
201
root  16.20928847 38.47910964 -9.594288773 -10.7013998 -69.55329895 9.759860039
lfemur  -21.94779205 3.600110292 3.357596636
ltibia  -1.491570742e-006 -8.364404493e-007 53.90238953
lfoot  5.521815751e-007 -4.892154217 2.460580587
ltoes  -4.250644065 -19.5611806 -102.515957
rfemur  -14.56449509 22.33819962 1.243089676
rtibia  -8.727266732e-007 2.533748784e-007 53.38468933
rfoot  -2.316020982e-006 -21.19989395 -11.77019787
rtoes  5.373923086 19.29304026 -105.8922705
lowerback  11.78579998 2.296819925 -2.574179888
upperback  4.055439949 2.521389961 -2.547539949
thorax  -2.356590033 1.195600033 -1.539659977
rclavicle  0 -9.442270133e-015 7.951389973e-016
rhumerus  1.040530086 27.22839928 -74.7743988
rradius  -7.782816926e-012 0.001642658608 136.5319977
rwrist  0.002739921212 0.003270594636 -9.303613663
rthumb  -92.93752616 -24.25625642 -97.11982154
rhand  -7.920061211e-032 -33.2840004 9.303460121
rfingers  -90 -7.125020027 -90
lclavicle  0 -9.442270133e-015 7.951389973e-016
lhumerus  8.502339363 11.51109982 60.2132988
lradius  1.032089952e-011 0.005718162749 138.9369965
lwrist  1.816137865e-011 1.409039812e-011 11.97049999
lthumb  89.89689403 5.08795885 91.16245106
lhand  -1.496451383e-031 -27.76390076 20.11240005
lfingers  90 7.125020027 -90
lowerneck  -5.018650055 11.39929962 -5.45359993
upperneck  11.79259968 16.00029945 -2.227340221
head  4.558209896 7.451640129 0.9998650551
